<?xml version="1.0" encoding="UTF-8"?>
<!DOCTYPE svg PUBLIC "-//W3C//DTD SVG 1.1//EN" "http://www.w3.org/Graphics/SVG/1.1/DTD/svg11.dtd">
<!-- Creator: CorelDRAW 2020 (64-Bit) -->
<svg xmlns="http://www.w3.org/2000/svg" xml:space="preserve" width="6.68056in" height="3.81945in" version="1.1" style="shape-rendering:geometricPrecision; text-rendering:geometricPrecision; image-rendering:optimizeQuality; fill-rule:evenodd; clip-rule:evenodd"
viewBox="0 0 5507.97 3149.05"
 xmlns:xlink="http://www.w3.org/1999/xlink"
 xmlns:xodm="http://www.corel.com/coreldraw/odm/2003">
 <defs>
  <style type="text/css">
   <![CDATA[
    .str0 {stroke:#FEFEFE;stroke-width:91.61;stroke-miterlimit:2.61313}
    .fil2 {fill:none}
    .fil1 {fill:#FEFEFE}
    .fil0 {fill:#29B6F6}
   ]]>
  </style>
 </defs>
 <g id="Layer_x0020_1">
  <metadata id="CorelCorpID_0Corel-Layer"/>
  <g id="_1336418000">
   <path class="fil0" d="M1539 1625.23c-250.15,76.86 -499.71,80.32 -685.34,395.5 -100.33,170.35 -72.85,224.32 -130.72,394.08 -20.58,60.37 -70.82,131.43 -97.27,166.46 -70.58,93.47 -92.09,67.94 -134.56,171.04l3193.1 -2.9c67.91,-134.96 123.62,-151.41 168.07,-357.38 43.49,-201.53 70.05,-255.93 187.69,-368.28 205.42,-196.21 512.42,-134.86 751.94,-353.08 169.83,-154.72 265.69,-503.74 208.26,-824.75 -76.08,-425.22 -229.86,-447.96 -660.29,-447.58 -727.73,0.66 -1455.52,0.04 -2183.26,0.03 -411.97,-0.01 -647.74,-45.98 -755.58,353.02 -109.63,405.62 -8.61,605.22 137.98,873.86l-0 -0.01z"/>
   <path class="fil0 str0" d="M4622.78 564.38c-87,53.03 -99.53,84.61 -132.47,222.83 -26.64,111.78 -35.03,207.55 -28.99,323.78 9.39,180.97 79.96,510.15 250.33,431.9 264.36,-121.44 187.85,-1147.17 -88.86,-978.52z"/>
   <path class="fil0 str0" d="M789.77 2610.7l2655.74 -0.49c416.99,0.21 136.63,-268.09 441.34,-633.92 77.39,-92.92 161.79,-165.43 315.51,-210.61 75.61,-22.23 140.83,-27.64 214.73,-47.89 105.23,-28.83 140.61,-47.47 194.35,-104.37l-2612.67 0.65c-303.77,0 -178.52,63.64 -410.7,142.39 -185.92,63.06 -239.54,28.04 -415.6,135.26 -287.97,175.37 -237.85,377.36 -382.72,718.99l0.02 -0.01z"/>
   <path class="fil0 str0" d="M1956.67 1556.66l2605.19 -0.84c-154.63,-429.92 -142.29,-616.69 49.09,-1011.73l-2788.89 -6.31c-297.66,0.03 -333.54,344.25 -321.08,575.31 26.77,496.37 264.34,443.56 455.69,443.56l0 0.01z"/>
   <polygon class="fil1" points="2019.39,1760.62 2034.22,1882.41 2107.94,1784.35 2059.88,1897.24 2172.77,1849.17 2074.7,1922.9 2196.49,1937.72 2074.7,1952.54 2172.77,2026.27 2059.87,1978.21 2107.94,2091.09 2034.21,1993.02 2019.39,2114.82 2004.58,1993.02 1930.84,2091.09 1978.91,1978.2 1866.02,2026.27 1964.09,1952.53 1842.29,1937.72 1964.09,1922.9 1866.02,1849.17 1978.91,1897.23 1930.84,1784.35 2004.58,1882.41 "/>
   <polygon class="fil1" points="2669.76,1760.62 2684.57,1882.41 2758.31,1784.35 2710.24,1897.24 2823.12,1849.17 2725.05,1922.9 2846.86,1937.72 2725.05,1952.54 2823.12,2026.27 2710.24,1978.21 2758.31,2091.09 2684.57,1993.02 2669.76,2114.82 2654.93,1993.02 2581.2,2091.09 2629.27,1978.2 2516.38,2026.27 2614.45,1952.53 2492.65,1937.72 2614.45,1922.9 2516.38,1849.17 2629.27,1897.23 2581.2,1784.35 2654.93,1882.41 "/>
   <polygon class="fil1" points="3320.11,1760.62 3334.94,1882.41 3408.66,1784.35 3360.6,1897.24 3473.48,1849.17 3375.42,1922.9 3497.21,1937.72 3375.42,1952.54 3473.48,2026.27 3360.59,1978.21 3408.66,2091.09 3334.93,1993.02 3320.11,2114.82 3305.29,1993.02 3231.56,2091.09 3279.62,1978.2 3166.74,2026.27 3264.81,1952.53 3143.02,1937.72 3264.81,1922.9 3166.74,1849.17 3279.63,1897.23 3231.56,1784.35 3305.3,1882.41 "/>
   <polygon class="fil1" points="1582.26,2133.77 1597.09,2255.57 1670.81,2157.5 1622.75,2270.39 1735.64,2222.33 1637.57,2296.05 1759.37,2310.88 1637.57,2325.7 1735.64,2399.43 1622.75,2351.36 1670.81,2464.25 1597.09,2366.19 1582.26,2487.97 1567.45,2366.19 1493.71,2464.25 1541.78,2351.36 1428.89,2399.43 1526.95,2325.7 1405.17,2310.88 1526.95,2296.05 1428.89,2222.33 1541.78,2270.39 1493.71,2157.5 1567.45,2255.57 "/>
   <polygon class="fil1" points="2232.63,2133.77 2247.44,2255.57 2321.18,2157.5 2273.11,2270.39 2386,2222.33 2287.93,2296.05 2409.72,2310.88 2287.93,2325.7 2386,2399.43 2273.11,2351.36 2321.18,2464.25 2247.44,2366.19 2232.63,2487.97 2217.8,2366.19 2144.08,2464.25 2192.14,2351.36 2079.25,2399.43 2177.32,2325.7 2055.52,2310.88 2177.32,2296.05 2079.25,2222.33 2192.15,2270.39 2144.08,2157.5 2217.81,2255.57 "/>
   <polygon class="fil1" points="2882.98,2133.77 2897.81,2255.57 2971.53,2157.5 2923.47,2270.39 3036.36,2222.33 2938.29,2296.05 3060.09,2310.88 2938.29,2325.7 3036.36,2399.43 2923.46,2351.36 2971.53,2464.25 2897.8,2366.19 2882.98,2487.97 2868.17,2366.19 2794.43,2464.25 2842.5,2351.36 2729.61,2399.43 2827.68,2325.7 2705.89,2310.88 2827.68,2296.05 2729.61,2222.33 2842.5,2270.39 2794.43,2157.5 2868.17,2255.57 "/>
   <g>
    <path class="fil1" d="M1906.66 735.46l69.82 120.93 69.82 120.93 -139.64 0 -139.63 0 69.82 -120.93 69.82 -120.93 0 0zm103.64 37.73l-24.25 137.52 -24.25 137.52 -106.97 -89.75 -106.97 -89.76 131.22 -47.76 131.22 -47.75 0 -0zm55.15 95.51l-106.97 89.76 -106.97 89.75 -24.25 -137.52 -24.25 -137.52 131.22 47.75 131.22 47.76 0 0z"/>
    <path class="fil1" d="M2452.28 735.46l69.82 120.93 69.82 120.93 -139.64 0 -139.63 0 69.82 -120.93 69.82 -120.93 0 0zm103.65 37.73l-24.25 137.52 -24.25 137.52 -106.97 -89.75 -106.97 -89.76 131.22 -47.76 131.22 -47.75 0 -0zm55.15 95.51l-106.97 89.76 -106.97 89.75 -24.25 -137.52 -24.25 -137.52 131.22 47.75 131.22 47.76 0 0z"/>
    <path class="fil1" d="M2997.88 735.46l69.82 120.93 69.82 120.93 -139.64 0 -139.63 0 69.82 -120.93 69.82 -120.93 0 0zm103.65 37.73l-24.25 137.52 -24.25 137.52 -106.97 -89.75 -106.97 -89.76 131.22 -47.76 131.22 -47.75 0 -0zm55.15 95.51l-106.97 89.76 -106.97 89.75 -24.25 -137.52 -24.25 -137.52 131.22 47.75 131.22 47.76 0 0z"/>
    <path class="fil1" d="M3543.49 735.46l69.82 120.93 69.82 120.93 -139.64 0 -139.63 0 69.82 -120.93 69.82 -120.93 0 0zm103.65 37.73l-24.25 137.52 -24.25 137.52 -106.97 -89.75 -106.97 -89.76 131.22 -47.76 131.22 -47.75 0 -0zm55.15 95.51l-106.97 89.76 -106.97 89.75 -24.25 -137.52 -24.25 -137.52 131.22 47.75 131.22 47.76 0 0z"/>
    <path class="fil1" d="M4089.1 735.46l69.82 120.93 69.82 120.93 -139.64 0 -139.63 0 69.82 -120.93 69.82 -120.93 0 0zm103.64 37.73l-24.25 137.52 -24.25 137.52 -106.97 -89.75 -106.97 -89.76 131.22 -47.76 131.22 -47.75 0 -0zm55.15 95.51l-106.97 89.76 -106.97 89.75 -24.25 -137.52 -24.25 -137.52 131.22 47.75 131.22 47.76 0 0z"/>
    <path class="fil1" d="M2146.85 1066.33l69.82 120.93 69.82 120.93 -139.64 0 -139.63 0 69.82 -120.93 69.82 -120.93 0 0zm103.65 37.73l-24.25 137.52 -24.25 137.52 -106.97 -89.75 -106.97 -89.76 131.22 -47.76 131.22 -47.75 0 -0zm55.15 95.52l-106.97 89.76 -106.97 89.75 -24.25 -137.52 -24.25 -137.52 131.22 47.75 131.22 47.76 0 0z"/>
    <path class="fil1" d="M2692.47 1066.33l69.82 120.93 69.82 120.93 -139.64 0 -139.63 0 69.82 -120.93 69.82 -120.93 0 0zm103.64 37.73l-24.25 137.52 -24.25 137.52 -106.97 -89.75 -106.97 -89.76 131.22 -47.76 131.22 -47.75 0 -0zm55.15 95.52l-106.97 89.76 -106.97 89.75 -24.25 -137.52 -24.25 -137.52 131.22 47.75 131.22 47.76 0 0z"/>
    <path class="fil1" d="M3238.08 1066.33l69.82 120.93 69.82 120.93 -139.64 0 -139.63 0 69.82 -120.93 69.82 -120.93 0 0zm103.64 37.73l-24.25 137.52 -24.25 137.52 -106.97 -89.75 -106.97 -89.76 131.22 -47.76 131.22 -47.75 0 -0zm55.15 95.52l-106.97 89.76 -106.97 89.75 -24.25 -137.52 -24.25 -137.52 131.22 47.75 131.22 47.76 0 0z"/>
    <path class="fil1" d="M3783.69 1066.33l69.82 120.93 69.82 120.93 -139.64 0 -139.63 0 69.82 -120.93 69.82 -120.93 0 0zm103.64 37.73l-24.25 137.52 -24.25 137.52 -106.97 -89.75 -106.97 -89.76 131.22 -47.76 131.22 -47.75 0 -0zm55.15 95.52l-106.97 89.76 -106.97 89.75 -24.25 -137.52 -24.25 -137.52 131.22 47.75 131.22 47.76 0 0z"/>
   </g>
   <rect class="fil2" width="5507.97" height="3149.05"/>
   <path class="fil1" d="M4617.6 1301.1c21.68,-15.25 78.02,32.51 81.94,-239.9l-31.05 -224.7c-41.72,-65.53 17.41,4.49 -51.93,-42.78 -39.02,153.64 -43.45,351.61 1.05,507.38l-0 -0.01z"/>
  </g>
 </g>
</svg>
