<?xml version="1.0" encoding="UTF-8"?>
<!DOCTYPE svg PUBLIC "-//W3C//DTD SVG 1.1//EN" "http://www.w3.org/Graphics/SVG/1.1/DTD/svg11.dtd">
<!-- Creator: CorelDRAW 2020 (64-Bit) -->
<svg xmlns="http://www.w3.org/2000/svg" xml:space="preserve" width="6.68056in" height="3.81945in" version="1.1" style="shape-rendering:geometricPrecision; text-rendering:geometricPrecision; image-rendering:optimizeQuality; fill-rule:evenodd; clip-rule:evenodd"
viewBox="0 0 6680.56 3819.45"
 xmlns:xlink="http://www.w3.org/1999/xlink"
 xmlns:xodm="http://www.corel.com/coreldraw/odm/2003">
 <defs>
  <style type="text/css">
   <![CDATA[
    .fil1 {fill:none}
    .fil0 {fill:#29B6F6}
   ]]>
  </style>
 </defs>
 <g id="Layer_x0020_1">
  <metadata id="CorelCorpID_0Corel-Layer"/>
  <g id="_1763240848">
   <path class="fil0" d="M1866.64 1971.22c-303.4,93.23 -606.1,97.42 -831.24,479.7 -121.69,206.62 -88.36,272.07 -158.55,477.98 -24.96,73.22 -85.9,159.41 -117.98,201.9 -85.61,113.37 -111.69,82.4 -163.21,207.45l3872.88 -3.51c82.37,-163.69 149.94,-183.64 203.85,-433.46 52.75,-244.43 84.96,-310.41 227.65,-446.69 249.15,-237.98 621.51,-163.57 912.02,-428.25 205.98,-187.66 322.25,-610.98 252.59,-1000.33 -92.27,-515.75 -278.79,-543.33 -800.86,-542.87 -882.66,0.8 -1765.38,0.05 -2648.06,0.03 -499.67,-0.01 -785.64,-55.77 -916.44,428.17 -132.97,491.97 -10.44,734.07 167.35,1059.89zm493.86 -83.16l3087.38 -1.02c-183.25,-521.45 -197.42,-689.52 0.89,-1231.16l-3247.79 -3.61c-352.75,0.04 -395.28,417.54 -380.51,697.79 31.72,602.04 313.27,537.99 540.03,537.99zm-1402.59 1278.43l3221.12 -0.59c505.76,0.26 165.72,-325.17 535.29,-768.87 93.87,-112.7 196.23,-200.65 382.68,-255.45 91.7,-26.96 170.81,-33.52 260.45,-58.09 127.63,-34.97 170.54,-57.57 235.72,-126.59l-3168.88 0.79c-368.44,0 -216.52,77.19 -498.13,172.7 -225.5,76.48 -290.53,34.01 -504.07,164.05 -349.28,212.7 -288.48,457.7 -464.2,872.06zm4605.96 -2481.96c-120.39,64.32 -137.73,102.62 -183.31,270.27 -36.86,135.57 -48.47,251.74 -40.12,392.71 12.99,219.5 110.65,618.76 346.39,523.85 365.8,-147.29 259.94,-1391.39 -122.96,-1186.83zm36.77 893.56c26.3,-18.5 94.63,39.43 99.38,-290.97l-37.66 -272.54c-50.6,-79.48 21.12,5.44 -62.99,-51.88 -47.33,186.35 -52.7,426.46 1.27,615.4z"/>
   <polygon class="fil0" points="2449.3,2135.44 2467.28,2283.16 2556.7,2164.22 2498.41,2301.14 2635.33,2242.84 2516.38,2332.27 2664.1,2350.24 2516.38,2368.22 2635.33,2457.64 2498.4,2399.35 2556.7,2536.26 2467.27,2417.32 2449.3,2565.04 2431.33,2417.32 2341.9,2536.26 2400.2,2399.34 2263.28,2457.64 2382.22,2368.21 2234.5,2350.24 2382.22,2332.26 2263.28,2242.84 2400.2,2301.13 2341.9,2164.22 2431.33,2283.16 "/>
   <polygon class="fil0" points="3238.12,2135.44 3256.09,2283.16 3345.52,2164.22 3287.22,2301.14 3424.14,2242.84 3305.19,2332.27 3452.92,2350.24 3305.19,2368.22 3424.14,2457.64 3287.22,2399.35 3345.52,2536.26 3256.09,2417.32 3238.12,2565.04 3220.14,2417.32 3130.71,2536.26 3189.01,2399.34 3052.09,2457.64 3171.04,2368.21 3023.31,2350.24 3171.04,2332.26 3052.09,2242.84 3189.01,2301.13 3130.71,2164.22 3220.14,2283.16 "/>
   <polygon class="fil0" points="4026.93,2135.44 4044.91,2283.16 4134.33,2164.22 4076.04,2301.14 4212.95,2242.84 4094.01,2332.27 4241.73,2350.24 4094.01,2368.22 4212.95,2457.64 4076.03,2399.35 4134.33,2536.26 4044.9,2417.32 4026.93,2565.04 4008.95,2417.32 3919.53,2536.26 3977.82,2399.34 3840.91,2457.64 3959.85,2368.21 3812.13,2350.24 3959.85,2332.26 3840.91,2242.84 3977.83,2301.13 3919.53,2164.22 4008.96,2283.16 "/>
   <polygon class="fil0" points="1919.11,2588.03 1937.09,2735.76 2026.51,2616.81 1968.22,2753.73 2105.14,2695.44 1986.19,2784.86 2133.92,2802.84 1986.19,2820.81 2105.14,2910.24 1968.22,2851.94 2026.51,2988.86 1937.09,2869.92 1919.11,3017.64 1901.14,2869.92 1811.71,2988.86 1870.01,2851.94 1733.09,2910.24 1852.03,2820.81 1704.31,2802.84 1852.03,2784.86 1733.09,2695.44 1870.01,2753.73 1811.71,2616.81 1901.14,2735.76 "/>
   <polygon class="fil0" points="2707.93,2588.03 2725.9,2735.76 2815.33,2616.81 2757.03,2753.73 2893.95,2695.44 2775.01,2784.86 2922.73,2802.84 2775.01,2820.81 2893.95,2910.24 2757.03,2851.94 2815.33,2988.86 2725.9,2869.92 2707.93,3017.64 2689.95,2869.92 2600.53,2988.86 2658.82,2851.94 2521.9,2910.24 2640.85,2820.81 2493.12,2802.84 2640.85,2784.86 2521.9,2695.44 2658.83,2753.73 2600.53,2616.81 2689.96,2735.76 "/>
   <polygon class="fil0" points="3496.74,2588.03 3514.72,2735.76 3604.14,2616.81 3545.85,2753.73 3682.77,2695.44 3563.82,2784.86 3711.55,2802.84 3563.82,2820.81 3682.77,2910.24 3545.84,2851.94 3604.14,2988.86 3514.71,2869.92 3496.74,3017.64 3478.77,2869.92 3389.34,2988.86 3447.64,2851.94 3310.72,2910.24 3429.66,2820.81 3281.94,2802.84 3429.66,2784.86 3310.72,2695.44 3447.64,2753.73 3389.34,2616.81 3478.77,2735.76 "/>
   <g>
    <path class="fil0" d="M2312.57 892.03l84.68 146.67 84.68 146.67 -169.37 0 -169.36 0 84.68 -146.67 84.68 -146.67zm125.71 45.76l-29.41 166.79 -29.41 166.79 -129.74 -108.86 -129.74 -108.87 159.15 -57.93 159.15 -57.92zm66.89 115.85l-129.74 108.87 -129.74 108.86 -29.41 -166.79 -29.41 -166.79 159.15 57.92 159.15 57.93z"/>
    <path class="fil0" d="M2974.34 892.03l84.68 146.67 84.68 146.67 -169.37 0 -169.36 0 84.68 -146.67 84.68 -146.67zm125.71 45.76l-29.41 166.79 -29.41 166.79 -129.74 -108.86 -129.74 -108.87 159.15 -57.93 159.15 -57.92zm66.89 115.85l-129.74 108.87 -129.74 108.86 -29.41 -166.79 -29.41 -166.79 159.15 57.92 159.15 57.93z"/>
    <path class="fil0" d="M3636.1 892.03l84.68 146.67 84.68 146.67 -169.37 0 -169.36 0 84.68 -146.67 84.68 -146.67zm125.71 45.76l-29.41 166.79 -29.41 166.79 -129.74 -108.86 -129.74 -108.87 159.15 -57.93 159.15 -57.92zm66.89 115.85l-129.74 108.87 -129.74 108.86 -29.41 -166.79 -29.41 -166.79 159.15 57.92 159.15 57.93z"/>
    <path class="fil0" d="M4297.86 892.03l84.68 146.67 84.68 146.67 -169.37 0 -169.36 0 84.68 -146.67 84.68 -146.67zm125.71 45.76l-29.41 166.79 -29.41 166.79 -129.74 -108.86 -129.74 -108.87 159.15 -57.93 159.15 -57.92zm66.89 115.85l-129.74 108.87 -129.74 108.86 -29.41 -166.79 -29.41 -166.79 159.15 57.92 159.15 57.93z"/>
    <path class="fil0" d="M4959.63 892.03l84.68 146.67 84.68 146.67 -169.37 0 -169.36 0 84.68 -146.67 84.68 -146.67zm125.71 45.76l-29.41 166.79 -29.41 166.79 -129.74 -108.86 -129.74 -108.87 159.15 -57.93 159.15 -57.92zm66.89 115.85l-129.74 108.87 -129.74 108.86 -29.41 -166.79 -29.41 -166.79 159.15 57.92 159.15 57.93z"/>
    <path class="fil0" d="M2603.9 1293.34l84.68 146.67 84.68 146.67 -169.37 0 -169.36 0 84.68 -146.67 84.68 -146.67zm125.71 45.76l-29.41 166.79 -29.41 166.79 -129.74 -108.86 -129.74 -108.87 159.15 -57.93 159.15 -57.92zm66.89 115.85l-129.74 108.87 -129.74 108.86 -29.41 -166.79 -29.41 -166.79 159.15 57.92 159.15 57.93z"/>
    <path class="fil0" d="M3265.67 1293.34l84.68 146.67 84.68 146.67 -169.37 0 -169.36 0 84.68 -146.67 84.68 -146.67zm125.71 45.76l-29.41 166.79 -29.41 166.79 -129.74 -108.86 -129.74 -108.87 159.15 -57.93 159.15 -57.92zm66.89 115.85l-129.74 108.87 -129.74 108.86 -29.41 -166.79 -29.41 -166.79 159.15 57.92 159.15 57.93z"/>
    <path class="fil0" d="M3927.43 1293.34l84.68 146.67 84.68 146.67 -169.37 0 -169.36 0 84.68 -146.67 84.68 -146.67zm125.71 45.76l-29.41 166.79 -29.41 166.79 -129.74 -108.86 -129.74 -108.87 159.15 -57.93 159.15 -57.92zm66.89 115.85l-129.74 108.87 -129.74 108.86 -29.41 -166.79 -29.41 -166.79 159.15 57.92 159.15 57.93z"/>
    <path class="fil0" d="M4589.2 1293.34l84.68 146.67 84.68 146.67 -169.37 0 -169.36 0 84.68 -146.67 84.68 -146.67zm125.71 45.76l-29.41 166.79 -29.41 166.79 -129.74 -108.86 -129.74 -108.87 159.15 -57.93 159.15 -57.92zm66.89 115.85l-129.74 108.87 -129.74 108.86 -29.41 -166.79 -29.41 -166.79 159.15 57.92 159.15 57.93z"/>
   </g>
  </g>
  <rect class="fil1" x="-0" width="33" height="33"/>
 </g>
</svg>
